<svg xmlns="http://www.w3.org/2000/svg" viewBox="0 0 668.98 351.5" style="enable-background:new 0 0 668.98 351.5" xml:space="preserve">
    <style>.st0{fill:#fff}</style>
    <g id="Grafiken">   
        <circle cx="175.75" cy="175.75" r="141.73"/>
        
    </g>
    <g id="Text">
        <path class="st0" d="M202.3 180.3c0 4.76-3.15 5.83-7.21 5.83-2.58 0-4.25-.44-4.98-.72v-2.52c.66.25 2.43.79 4.79.79 2.46 0 4.82-.35 4.82-3.46V166.8h-9.2l.69-2.39h11.09v15.89zM219.82 180.11h-9.83l-2.17 5.7h-2.71l8.28-21.42h3.02l8.31 21.42h-2.74l-2.16-5.7zm-.85-2.27-4.06-10.71-4.06 10.71h8.12zM244.39 164.4v21.42h-2.58v-9.73h-11.24v9.73h-2.58V164.4h2.58v9.29h11.24v-9.29h2.58zM265.96 185.81h-2.99l-5.64-8.41h-5.07v8.41h-2.58V164.4h7.28c5.2 0 7.9 1.39 7.9 6.46 0 3.94-1.7 5.61-4.82 6.21l5.92 8.74zm-3.68-14.89c0-3.53-1.79-4.13-5.61-4.13h-4.41v8.25h4.41c3.81 0 5.61-.6 5.61-4.12zM283.73 183.42l-.6 2.39h-13.48V164.4h13.67v2.39h-11.09v6.96h10.61v2.33h-10.61v7.34h11.5zM100.37 221.23v21.42h-2.58v-9.73H86.54v9.73h-2.58v-21.42h2.58v9.29h11.24v-9.29h2.59zM120.12 240.25l-.6 2.39h-13.48v-21.42h13.67v2.39h-11.09v6.96h10.61v2.33h-10.61v7.34h11.5zM140.97 242.64h-2.99l-5.64-8.41h-5.07v8.41h-2.58v-21.42h7.28c5.2 0 7.9 1.39 7.9 6.46 0 3.94-1.7 5.61-4.82 6.2l5.92 8.76zm-3.69-14.9c0-3.53-1.79-4.13-5.61-4.13h-4.41v8.25h4.41c3.82.01 5.61-.59 5.61-4.12zM143.74 242.01v-2.55c1.32.47 3.65 1.1 6.74 1.1 3.87 0 5.07-1.35 5.07-3.37 0-1.98-.6-2.8-2.87-3.68l-4.5-1.76c-2.9-1.13-4.63-2.27-4.63-5.45 0-4 2.27-5.38 7.75-5.38 2.71 0 4.76.41 6.02.85v2.46c-1.32-.5-3.4-.91-5.98-.91-3.91 0-5.13.66-5.13 3.06 0 1.86 1.17 2.39 3.5 3.31l4.16 1.64c3.28 1.26 4.35 2.65 4.35 5.76 0 3.53-1.76 5.89-7.72 5.89-3.01-.02-5.21-.4-6.76-.97zM167.37 223.65h-6.99v-2.42h16.82l-.66 2.42h-6.58v18.99h-2.58v-18.99zM194.3 240.25l-.6 2.39h-13.48v-21.42h13.67v2.39H182.8v6.96h10.61v2.33H182.8v7.34h11.5zM198.87 221.23h2.58v18.99h10.83l-.54 2.42h-12.88v-21.41zM215.78 221.23h2.58v18.99h10.83l-.54 2.42h-12.88v-21.41zM246.78 240.25l-.6 2.39H232.7v-21.42h13.67v2.39h-11.09v6.96h10.61v2.33h-10.61v7.34h11.5zM267.63 242.64h-2.99l-5.64-8.41h-5.07v8.41h-2.58v-21.42h7.28c5.2 0 7.9 1.39 7.9 6.46 0 3.94-1.7 5.61-4.82 6.2l5.92 8.76zm-3.69-14.9c0-3.53-1.79-4.13-5.61-4.13h-4.41v8.25h4.41c3.82.01 5.61-.59 5.61-4.12z"/>
        <g>
            <path class="st0" d="M92.54 262.2c0-9.1 2.96-11.05 9.92-11.05 2.49 0 4.35.35 5.92.76v2.49c-1.76-.47-3.43-.79-5.73-.79-5.32 0-7.46.94-7.46 8.6 0 7.68 1.95 8.54 7.21 8.54 1.95 0 3.21-.16 4.5-.57v-8.16l2.52-.72v10.8c-2.11.72-4.06 1.1-6.96 1.1-6.86-.01-9.92-1.84-9.92-11zM127 267.17h-9.83l-2.17 5.7h-2.71l8.28-21.42h3.02l8.31 21.42h-2.74l-2.16-5.7zm-.85-2.26-4.06-10.71-4.06 10.71h8.12zM151.44 272.87h-2.99l-5.64-8.41h-5.07v8.41h-2.58v-21.42h7.27c5.2 0 7.91 1.39 7.91 6.46 0 3.94-1.7 5.61-4.82 6.2l5.92 8.76zm-3.68-14.89c0-3.53-1.8-4.13-5.61-4.13h-4.41v8.25h4.41c3.81 0 5.61-.6 5.61-4.12zM167.88 267.17h-9.83l-2.17 5.7h-2.71l8.28-21.42h3.02l8.31 21.42h-2.74l-2.16-5.7zm-.85-2.26-4.06-10.71-4.06 10.71h8.12zM176.05 251.46h2.11l11.94 16.85v-16.85h2.58v21.42h-2.17l-11.87-16.72v16.72h-2.58v-21.42zM203.13 253.88h-6.99v-2.42h16.82l-.66 2.42h-6.58v18.99h-2.58v-18.99zM216.21 251.46h2.58v21.42h-2.58v-21.42zM238.54 270.48l-.6 2.39h-13.48v-21.42h13.67v2.39h-11.09v6.96h10.61v2.33h-10.61v7.34h11.5z"/>
        </g>
       
       
       
        <g>
            <path class="st0" d="M176.36 152.82c0 29.67-16.38 38.95-45.32 38.95-16.02 0-29.48-2.73-36.77-5.46v-14.38c7.28 2.55 20.38 6.19 36.95 6.19 18.93 0 30.21-4.73 30.21-25.3 0-20.2-9.83-25.12-30.58-25.12-16.56 0-24.75.73-33.85 1.64V66.18h72.07v13.29h-57.51v36.04c5.64-.55 12.19-1.09 22.02-1.09 26.94 0 42.78 8.73 42.78 38.4z"/>
        </g>
       
    </g>
</svg>