<svg xmlns="http://www.w3.org/2000/svg" viewBox="0 0 107.6 92.9" style="enable-background:new 0 0 107.6 92.9" xml:space="preserve"><style>.st3{fill:#1a1a18}.st4{fill:#e3000f}</style><g id="Diamantspitze"><path style="fill:#fff" d="m.3.4 53.3 92.8L107.3.4z" id="Diamantspitze_1_"/></g><g id="Mitsubishi_Logo"><g id="MITSUBISHI_MOTORS_1_"><path class="st3" d="m37.8 42.2-1.2 2.1-1.3-2.1h-1.5v5.3H35v-3.8l1.6 2.7 1.6-2.7v3.8h1.2v-5.3zM40.4 42.2h1.2v5.3h-1.2zM43.5 43.3h-1.4v-1.1h4.1v1.1h-1.5v4.2h-1.2zM46.6 47.4v-1.1c.2 0 .8.1 1.6.1.6 0 .9-.1.9-.4 0-.4-.3-.4-1.1-.8s-1.5-.7-1.5-1.6c0-1.1.7-1.5 2-1.5.7 0 1.2.1 1.5.1v1.1c-.3 0-.8-.1-1.4-.1-.7 0-.9.1-.9.4 0 .3.4.4 1 .7.9.4 1.6.7 1.6 1.7 0 1.1-.7 1.5-2.1 1.5-.6 0-1.1 0-1.6-.1M51 45.7v-3.5h1.2v3.5c0 .6.4.8.9.8.6 0 .9-.2.9-.8v-3.5h1.2v3.5c0 1.3-.8 1.9-2.1 1.9-1.3-.1-2.1-.6-2.1-1.9M58.4 46.5c.5 0 .7-.2.7-.6 0-.4-.2-.6-.6-.6h-1.1v1.2h1zm-.1-2.2c.5 0 .6-.3.6-.6 0-.4-.2-.5-.6-.5h-1v1.1h1zm-2.1-2.1h2.3c1.1 0 1.7.4 1.7 1.4 0 .8-.4 1-.8 1.2.5.1 1 .4 1 1.3s-.6 1.5-1.7 1.5h-2.4v-5.4zM61 42.2h1.2v5.3H61zM63.1 47.4v-1.1c.2 0 .8.1 1.6.1.6 0 .9-.1.9-.4 0-.4-.3-.4-1.1-.8s-1.5-.7-1.5-1.6c0-1.1.7-1.5 2-1.5.7 0 1.2.1 1.5.1v1.1c-.3 0-.8-.1-1.4-.1-.7 0-.9.1-.9.4 0 .3.4.4 1 .7.9.4 1.6.7 1.6 1.7 0 1.1-.7 1.5-2.1 1.5-.6 0-1.1 0-1.6-.1M71.6 42.2v5.3h-1.2v-2.1h-1.8v2.1h-1.2v-5.3h1.2v2.1h1.8v-2.1zM72.6 42.2h1.2v5.3h-1.2zM45 49.3v5.3h-1.2v-3.7l-1.6 2.6-1.6-2.6v3.7h-1.2v-5.3h1.5l1.3 2.2 1.2-2.2zM49.1 51.9c0-1.1-.2-1.6-1.1-1.6-.9 0-1.1.5-1.1 1.6s.2 1.6 1.1 1.6c.9.1 1.1-.5 1.1-1.6m-3.3 0c0-1.9.7-2.7 2.3-2.7 1.6 0 2.3.8 2.3 2.7s-.7 2.7-2.3 2.7c-1.6.1-2.3-.8-2.3-2.7M52 50.4h-1.5v-1.1h4.1v1.1h-1.4v4.2H52zM58.1 51.9c0-1.1-.2-1.6-1.1-1.6s-1 .6-1 1.6c0 1.1.2 1.6 1.1 1.6s1-.5 1-1.6m-3.3 0c0-1.9.7-2.7 2.3-2.7 1.6 0 2.3.8 2.3 2.7s-.7 2.7-2.3 2.7c-1.6.1-2.3-.8-2.3-2.7M62.2 51.7c.5 0 .7-.3.7-.7 0-.4-.2-.7-.7-.7h-.9v1.4h.9zm-2-2.4h2.1c1.1 0 1.9.4 1.9 1.7 0 .8-.4 1.4-1.1 1.5l1.3 2.1H63l-1.1-1.9h-.5v1.9h-1.2v-5.3zM64.9 54.5v-1.1c.2 0 .8.1 1.6.1.6 0 .9-.1.9-.4 0-.4-.3-.4-1.1-.8s-1.5-.7-1.5-1.6c0-1.1.7-1.5 2-1.5.7 0 1.2.1 1.5.1v1.1c-.3 0-.8-.1-1.4-.1-.7 0-.9.1-.9.4 0 .3.4.4 1 .7.9.4 1.6.7 1.6 1.7 0 1.1-.7 1.5-2.1 1.5-.6.1-1.1 0-1.6-.1"/></g><g id="Diamantelement_1_"><path class="st4" d="m48.7 20.6 5.1 8.8 5.1-8.8-5.1-8.8z"/><path class="st4" d="M64 29.4H53.8l5.1 8.8H69z"/><path class="st4" d="M43.7 29.4h10.1l-5.1 8.8H38.6z"/></g></g></svg>